<svg width="28" height="28" viewBox="0 0 28 28" fill="none" xmlns="http://www.w3.org/2000/svg">
<g clip-path="url(#clip0_4_46)">
<path d="M27.6343 14.2453C27.6343 13.0995 27.5413 12.2633 27.3401 11.3962H14.256V16.5679H21.9361C21.7813 17.8531 20.9451 19.7886 19.087 21.0892L19.061 21.2624L23.1979 24.4672L23.4845 24.4958C26.1168 22.0648 27.6343 18.4879 27.6343 14.2453Z" fill="black"/>
<path d="M14.256 27.8708C18.0186 27.8708 21.1774 26.632 23.4846 24.4953L19.0871 21.0887C17.9103 21.9094 16.3309 22.4823 14.256 22.4823C10.5708 22.4823 7.44307 20.0513 6.32811 16.6913L6.16468 16.7052L1.86302 20.0343L1.80676 20.1906C4.09839 24.7429 8.80558 27.8708 14.256 27.8708Z" fill="black"/>
<path d="M6.32773 16.6916C6.03354 15.8245 5.86328 14.8953 5.86328 13.9354C5.86328 12.9753 6.03354 12.0463 6.31225 11.1792L6.30446 10.9945L1.94889 7.61194L1.80639 7.67972C0.861897 9.56881 0.319946 11.6902 0.319946 13.9354C0.319946 16.1806 0.861897 18.3018 1.80639 20.1909L6.32773 16.6916Z" fill="black"/>
<path d="M14.256 5.38844C16.8728 5.38844 18.638 6.51878 19.6445 7.46338L23.5774 3.62329C21.162 1.37809 18.0186 0 14.256 0C8.80558 0 4.09839 3.12777 1.80676 7.68007L6.31263 11.1795C7.44307 7.81948 10.5708 5.38844 14.256 5.38844Z" fill="black"/>
</g>
<defs>
<clipPath id="clip0_4_46">
<rect width="27.9675" height="27.9675" fill="white"/>
</clipPath>
</defs>
</svg>
