<svg width="14" height="21" viewBox="0 0 14 21" fill="none" xmlns="http://www.w3.org/2000/svg">
<path d="M11.8875 0.100342C12.1776 0.100342 12.4332 0.339099 12.4333 0.623779V3.073C12.4333 3.3675 12.167 3.56519 11.8875 3.56519H10.0808L9.64624 4.5896H12.7546C13.0448 4.58967 13.2996 4.82924 13.2996 5.11401V19.8074C13.2996 20.1018 13.0341 20.2995 12.7546 20.2996H0.62085C0.333758 20.2994 0.100342 20.0949 0.100342 19.8074V5.11401C0.100342 4.83655 0.323484 4.58978 0.62085 4.5896H3.72925L3.29468 3.56519H1.48804C1.20077 3.56519 0.966553 3.36064 0.966553 3.073V0.623779C0.966721 0.346346 1.19062 0.100342 1.48804 0.100342H11.8875ZM1.16675 19.2839H12.2332V5.6062H1.16675V19.2839ZM4.88062 4.5896H8.49585L8.93042 3.56519H4.44507L4.88062 4.5896ZM2.03296 2.54858H11.3669V1.11597H2.03296V2.54858Z" fill="white" stroke="white" stroke-width="0.2"/>
</svg>
